<?xml version="1.0" standalone="no"?>
<!DOCTYPE svg PUBLIC "-//W3C//DTD SVG 20010904//EN"
 "http://www.w3.org/TR/2001/REC-SVG-20010904/DTD/svg10.dtd">
<svg version="1.0" xmlns="http://www.w3.org/2000/svg"
 width="500.000000pt" height="307.000000pt" viewBox="0 0 500.000000 307.000000"
 preserveAspectRatio="xMidYMid meet">

<g transform="translate(0.000000,307.000000) scale(0.100000,-0.100000)"
fill="#000000" stroke="none">
<path d="M0 1535 l0 -1535 2500 0 2500 0 0 1535 0 1535 -2500 0 -2500 0 0
-1535z m2163 1355 c34 -90 79 -240 75 -252 -2 -5 -18 33 -37 84 -18 51 -47
119 -63 152 -25 49 -33 57 -51 53 -41 -10 -182 -37 -220 -43 l-38 -5 54 -59
c135 -149 341 -612 391 -879 26 -135 17 -145 -18 -21 -114 398 -269 705 -468
932 l-59 66 53 6 c29 3 85 8 123 11 39 3 95 12 125 20 95 23 100 20 133 -65z
m522 -52 l80 -40 -45 5 c-36 3 -98 24 -130 44 -3 2 -5 -70 -5 -159 0 -206 -35
-437 -95 -638 -24 -78 -71 -192 -77 -187 -2 3 7 40 21 83 107 333 141 697 89
957 l-6 30 44 -27 c24 -15 80 -46 124 -68z m405 -245 c-27 -103 -124 -296
-204 -407 -67 -93 -196 -245 -208 -246 -4 0 27 44 69 98 158 200 275 410 330
585 33 108 44 84 13 -30z m-1516 28 c98 -86 268 -256 201 -202 -22 17 -78 63
-125 102 -47 39 -105 84 -129 100 l-45 29 -75 -73 c-42 -40 -87 -79 -100 -88
-24 -15 -23 -15 45 -38 188 -61 541 -312 745 -529 139 -149 138 -172 -2 -38
-263 251 -573 452 -823 532 -44 14 -89 29 -99 33 -15 5 -3 17 60 58 43 28 114
83 158 121 44 39 84 71 89 71 4 1 49 -35 100 -78z m56 -599 c26 -6 -4 -10
-115 -14 -159 -7 -366 -30 -499 -57 l-80 -16 -16 -70 c-9 -38 -26 -89 -38
-112 -13 -24 -19 -43 -15 -43 5 0 44 12 88 25 180 57 307 77 525 82 237 6 363
-8 573 -61 127 -33 130 -33 148 -15 11 11 22 19 25 19 3 0 18 9 33 19 45 32
135 51 196 41 66 -11 115 -36 188 -95 l56 -45 253 10 c273 11 803 11 1038 1
107 -4 13 -8 -355 -13 -275 -4 -605 -12 -733 -19 l-233 -12 -32 31 c-98 95
-254 96 -390 4 l-46 -30 -104 33 c-357 116 -774 109 -1197 -19 -63 -19 -116
-33 -119 -31 -2 3 10 35 26 72 42 95 50 118 72 203 l19 75 83 17 c46 9 120 22
164 27 89 11 430 6 485 -7z m-1048 -799 c61 -28 132 -94 158 -149 31 -64 24
-74 -56 -74 -67 0 -68 1 -110 44 -67 70 -169 81 -256 28 -95 -59 -117 -242
-41 -333 76 -90 242 -92 312 -3 26 34 26 44 0 44 -53 0 -114 25 -151 62 -67
67 -65 68 171 68 232 0 221 3 221 -69 0 -40 -14 -61 -40 -61 -10 0 -25 -20
-39 -54 -45 -109 -131 -176 -251 -195 -161 -26 -322 48 -390 179 -21 40 -40
122 -40 175 0 166 97 300 255 352 60 19 199 12 257 -14z m2719 -2 c147 -57
231 -226 201 -404 -28 -160 -127 -260 -287 -288 -161 -28 -323 41 -387 166
-90 174 -48 392 94 491 94 66 260 81 379 35z m761 10 c89 -28 182 -122 210
-214 7 -23 13 -85 13 -137 0 -83 -4 -102 -28 -155 -52 -111 -135 -174 -262
-196 -80 -14 -183 -1 -246 32 -135 69 -206 222 -179 392 22 145 101 236 245
284 46 15 189 11 247 -6z m-2767 -61 l0 -65 -120 -5 -120 -5 -3 -62 -3 -62
118 -3 118 -3 0 -65 0 -65 -50 -3 c-65 -4 -116 11 -154 47 l-31 29 0 -114 0
-114 113 0 c61 0 118 -4 125 -9 9 -5 12 -27 10 -72 l-3 -64 -200 0 -200 0 -3
209 c-2 202 -2 210 22 262 13 29 34 59 45 66 31 19 26 27 -21 30 l-43 3 -3 54
c-2 29 -1 60 2 68 5 11 42 13 203 11 l198 -3 0 -65z m589 48 c8 -32 7 -91 -2
-105 -5 -8 -41 -13 -97 -15 l-90 -3 -5 -280 -5 -280 -70 0 -70 0 -3 205 c-3
226 3 270 48 318 15 17 25 33 22 36 -3 3 -63 6 -133 6 -139 0 -139 0 -139 63
0 18 3 42 6 55 l6 22 263 0 263 0 6 -22z m645 11 c136 -29 193 -184 106 -287
-31 -37 -31 -38 0 -46 61 -15 104 -132 84 -227 -19 -87 -104 -150 -201 -149
-49 1 -104 36 -126 80 -12 24 -19 47 -16 52 3 4 34 8 69 8 53 0 69 4 91 24 37
31 39 90 6 117 -25 19 -91 33 -138 27 l-29 -3 -5 -90 c-6 -112 -36 -171 -101
-203 -23 -12 -46 -19 -51 -16 -9 6 -11 684 -2 708 5 13 27 16 135 16 70 0 151
-5 178 -11z m1999 -149 l3 -155 32 63 c17 35 70 105 116 157 l84 95 89 0 c64
0 88 -3 88 -12 0 -7 -61 -79 -135 -160 l-135 -146 55 -31 c30 -17 68 -50 85
-72 44 -62 150 -253 150 -273 0 -15 -11 -16 -87 -14 l-88 3 -80 152 c-44 83
-84 155 -88 159 -4 4 -25 -9 -46 -30 -34 -33 -39 -45 -44 -95 -2 -32 -14 -76
-26 -98 -23 -46 -86 -103 -113 -103 -17 0 -18 21 -18 344 0 189 3 352 6 361 5
13 19 15 78 13 l71 -3 3 -155z m-3706 -887 c-6 -66 -8 -69 -13 -15 -2 32 0 52
6 52 7 0 9 -16 7 -37z m141 -10 c-4 -64 -13 -68 -13 -5 0 29 4 52 8 52 4 0 6
-21 5 -47z m613 -4 c14 -28 20 -48 15 -44 -6 3 -19 23 -28 43 -9 20 -19 40
-21 45 -2 4 -1 7 2 7 3 0 17 -23 32 -51z m334 -5 c0 -34 -4 -53 -10 -49 -18
11 -12 105 7 105 2 0 3 -25 3 -56z m1285 2 c0 -30 -3 -52 -7 -49 -5 2 -8 26
-8 54 0 27 3 49 8 49 4 0 7 -24 7 -54z m342 -24 c-2 -15 -4 -2 -4 28 0 30 2
43 4 28 2 -16 2 -40 0 -56z m232 26 c-2 -52 -2 -53 -8 -13 -4 22 -5 46 -3 53
8 25 12 11 11 -40z m126 -2 c1 -30 -3 -52 -7 -50 -10 7 -11 104 0 104 4 0 7
-24 7 -54z m387 17 c-6 -66 -8 -69 -13 -15 -2 32 0 52 6 52 7 0 9 -16 7 -37z
m-3262 14 c0 -7 -5 -18 -11 -24 -8 -8 -8 -17 1 -34 l11 -24 -20 23 c-18 21
-19 25 -6 39 8 8 13 19 10 24 -4 5 -1 9 4 9 6 0 11 -6 11 -13z m115 -26 c0
-22 -3 -37 -7 -35 -10 6 -10 36 -2 58 9 23 9 21 9 -23z m95 -1 c0 -16 -3 -31
-7 -33 -5 -3 -8 12 -8 33 -1 21 3 36 7 34 4 -3 8 -18 8 -34z m108 21 c-9 -15
-9 -25 1 -47 11 -24 10 -26 -3 -14 -23 18 -18 80 5 80 5 0 4 -9 -3 -19z m411
-22 c24 -21 42 -42 39 -44 -2 -3 -27 15 -54 40 -27 25 -44 45 -39 45 6 -1 30
-19 54 -41z m241 1 c0 -3 -6 -14 -12 -23 -11 -15 -13 -12 -13 23 0 35 2 38 13
23 6 -9 12 -20 12 -23z m190 0 c0 -16 -3 -31 -7 -33 -5 -3 -8 12 -8 33 -1 21
3 36 7 34 4 -3 8 -18 8 -34z m228 21 c-9 -15 -9 -25 1 -47 11 -24 10 -26 -3
-14 -23 18 -18 80 5 80 5 0 4 -9 -3 -19z m184 -23 c-4 -33 -6 -38 -14 -24 -7
12 -7 26 1 42 15 33 17 30 13 -18z m98 3 c0 -9 -4 -22 -9 -30 -6 -9 -10 -1
-13 27 -3 32 -1 38 9 30 7 -6 13 -18 13 -27z m189 -45 c2 -6 -16 7 -42 29 -25
22 -46 44 -46 49 -1 10 82 -64 88 -78z m121 39 c0 -25 -4 -45 -10 -45 -5 0
-10 20 -10 45 0 25 5 45 10 45 6 0 10 -20 10 -45z m80 0 c0 -25 -4 -45 -10
-45 -5 0 -10 20 -10 45 0 25 5 45 10 45 6 0 10 -20 10 -45z m269 24 c-8 -16
-8 -28 1 -47 10 -22 9 -24 -4 -12 -23 18 -18 80 5 80 6 0 5 -10 -2 -21z m344
-24 c14 -25 21 -45 16 -45 -5 0 -9 4 -9 9 0 4 -11 25 -25 45 -13 20 -20 36
-16 36 5 0 21 -20 34 -45z m402 5 c21 -22 37 -42 34 -44 -4 -5 -89 71 -89 79
0 14 20 1 55 -35z m320 1 c0 -22 -3 -37 -7 -35 -10 6 -10 36 -2 58 9 23 9 21
9 -23z m95 -1 c0 -16 -3 -31 -7 -33 -5 -3 -8 12 -8 33 -1 21 3 36 7 34 4 -3 8
-18 8 -34z m-2424 -5 c0 -18 -3 -32 -8 -29 -13 8 -8 64 6 64 1 0 1 -16 2 -35z"/>
<path d="M3087 1096 c-87 -24 -146 -105 -147 -202 0 -136 80 -224 205 -224 91
0 146 36 184 120 79 174 -64 354 -242 306z"/>
<path d="M3867 1096 c-97 -26 -157 -127 -143 -239 17 -128 92 -192 217 -185
57 3 74 8 106 34 55 43 83 104 83 179 0 154 -119 249 -263 211z"/>
<path d="M2372 1028 l3 -73 53 1 c67 2 92 22 92 75 0 50 -27 69 -98 69 l-53 0
3 -72z"/>
</g>
</svg>
